<svg width="128" height="128" version="1.1" viewBox="0 0 128 128" xmlns="http://www.w3.org/2000/svg">
 <g transform="rotate(45 64 64)">
  <circle id="a" cx="64" cy="64" r="64" fill="#53b95b"/>
  <circle id="b" cx="64" cy="64" r="59" fill="#fff"/>
  <path id="c" d="m48 12c-8 0-14 6-14 14v38c0 8 6 14 14 14h18v24c0 8 6 14 14 14 8 0 14-6 14-14v-38c0-8-6-14-14-14h-18v-24c0-8-6-14-14-14zm0 5c5 0 9 4 9 9v24h-18v-24c0-5 4-9 9-9zm-0.01 38h0.01c5 0 9 4 9 9 0 5-4 9-9 9-5 0-9-4-9-9-4e-6 -5 4-9 9-9zm14 0h4v18h-4zm18 0h0.01c5 0 9 4 9 9 0 5-4 9-9 9-5 0-9-4-9-9-4e-6 -5 4-9 9-9zm-9 23h18v24c0 5-4 9-9 9s-9-4-9-9z" fill="#53b95b"/>
 </g>
</svg>
